<svg xmlns="http://www.w3.org/2000/svg" xmlns:xlink="http://www.w3.org/1999/xlink" width="40" zoomAndPan="magnify" viewBox="0 0 30 30.000001" height="40" preserveAspectRatio="xMidYMid meet" version="1.0"><defs><g/><clipPath id="2a61fc982b"><path d="M 0.484375 0 L 29.515625 0 L 29.515625 29.03125 L 0.484375 29.03125 Z M 0.484375 0 " clip-rule="nonzero"/></clipPath></defs><g clip-path="url(#2a61fc982b)"><path fill="#ffffff" d="M 0.484375 0 L 29.515625 0 L 29.515625 29.03125 L 0.484375 29.03125 Z M 0.484375 0 " fill-opacity="1" fill-rule="nonzero"/><path fill="#ffffff" d="M 0.484375 0 L 29.515625 0 L 29.515625 29.03125 L 0.484375 29.03125 Z M 0.484375 0 " fill-opacity="1" fill-rule="nonzero"/><path fill="#000000" d="M 29.515625 14.519531 C 15.226562 14.640625 15.125 14.742188 15.003906 29.03125 C 14.875 14.742188 14.773438 14.640625 0.484375 14.519531 C 14.773438 14.390625 14.875 14.292969 15.003906 0 C 15.125 14.292969 15.226562 14.390625 29.515625 14.519531 Z M 29.515625 14.519531 " fill-opacity="1" fill-rule="nonzero"/></g><g fill="#ffffff" fill-opacity="1"><g transform="translate(25.110414, 20.637897)"><g><path d="M 0.28125 -0.53125 L 0.046875 0.078125 L 0 0.078125 L 0.234375 -0.53125 Z M 0.28125 -0.53125 "/></g></g><g transform="translate(25.41122, 20.637897)"><g><path d="M 0.28125 -0.53125 L 0.046875 0.078125 L 0 0.078125 L 0.234375 -0.53125 Z M 0.28125 -0.53125 "/></g></g><g transform="translate(25.712027, 20.637897)"><g><path d="M 0.21875 0.015625 C 0.164062 0.015625 0.125 -0.00390625 0.09375 -0.046875 C 0.0625 -0.0976562 0.046875 -0.171875 0.046875 -0.265625 C 0.046875 -0.347656 0.0625 -0.410156 0.09375 -0.453125 C 0.125 -0.503906 0.164062 -0.53125 0.21875 -0.53125 C 0.28125 -0.53125 0.320312 -0.503906 0.34375 -0.453125 C 0.375 -0.410156 0.390625 -0.347656 0.390625 -0.265625 C 0.390625 -0.171875 0.375 -0.0976562 0.34375 -0.046875 C 0.3125 -0.00390625 0.269531 0.015625 0.21875 0.015625 Z M 0.21875 -0.03125 C 0.25 -0.03125 0.273438 -0.0351562 0.296875 -0.046875 C 0.316406 -0.0664062 0.332031 -0.09375 0.34375 -0.125 C 0.351562 -0.164062 0.359375 -0.210938 0.359375 -0.265625 C 0.359375 -0.316406 0.351562 -0.359375 0.34375 -0.390625 C 0.332031 -0.421875 0.316406 -0.445312 0.296875 -0.46875 C 0.273438 -0.488281 0.25 -0.5 0.21875 -0.5 C 0.195312 -0.5 0.175781 -0.488281 0.15625 -0.46875 C 0.132812 -0.445312 0.117188 -0.421875 0.109375 -0.390625 C 0.0976562 -0.359375 0.09375 -0.316406 0.09375 -0.265625 C 0.09375 -0.210938 0.0976562 -0.164062 0.109375 -0.125 C 0.117188 -0.09375 0.132812 -0.0664062 0.15625 -0.046875 C 0.175781 -0.0351562 0.195312 -0.03125 0.21875 -0.03125 Z M 0.21875 -0.03125 "/></g></g></g><g fill="#ffffff" fill-opacity="1"><g transform="translate(26.160139, 20.637897)"><g><path d="M 0.21875 0.015625 C 0.164062 0.015625 0.125 0 0.09375 -0.03125 C 0.0625 -0.0625 0.046875 -0.101562 0.046875 -0.15625 L 0.09375 -0.15625 C 0.09375 -0.113281 0.101562 -0.0820312 0.125 -0.0625 C 0.144531 -0.0390625 0.175781 -0.03125 0.21875 -0.03125 C 0.257812 -0.03125 0.289062 -0.046875 0.3125 -0.078125 C 0.34375 -0.109375 0.359375 -0.144531 0.359375 -0.1875 C 0.359375 -0.207031 0.351562 -0.226562 0.34375 -0.25 C 0.332031 -0.269531 0.316406 -0.285156 0.296875 -0.296875 C 0.273438 -0.304688 0.25 -0.3125 0.21875 -0.3125 C 0.195312 -0.3125 0.175781 -0.300781 0.15625 -0.28125 C 0.132812 -0.269531 0.117188 -0.253906 0.109375 -0.234375 L 0.046875 -0.234375 L 0.109375 -0.53125 L 0.375 -0.53125 L 0.375 -0.484375 L 0.140625 -0.484375 L 0.109375 -0.296875 C 0.117188 -0.316406 0.132812 -0.332031 0.15625 -0.34375 C 0.175781 -0.351562 0.203125 -0.359375 0.234375 -0.359375 C 0.273438 -0.359375 0.304688 -0.347656 0.328125 -0.328125 C 0.347656 -0.304688 0.363281 -0.28125 0.375 -0.25 C 0.382812 -0.226562 0.390625 -0.207031 0.390625 -0.1875 C 0.390625 -0.144531 0.382812 -0.109375 0.375 -0.078125 C 0.363281 -0.0546875 0.34375 -0.0351562 0.3125 -0.015625 C 0.289062 0.00390625 0.257812 0.015625 0.21875 0.015625 Z M 0.21875 0.015625 "/></g></g></g></svg>